<svg width="24" height="24" viewBox="0 0 24 24" fill="none" xmlns="http://www.w3.org/2000/svg">
<path d="M0 5.33329C0 3.86246 1.19583 2.66663 2.66667 2.66663H21.3333C22.8042 2.66663 24 3.86246 24 5.33329V18.6666C24 20.1375 22.8042 21.3333 21.3333 21.3333H2.66667C1.19583 21.3333 0 20.1375 0 18.6666V5.33329ZM4.66667 13.3333C4.3 13.3333 4 13.6333 4 14C4 14.3666 4.3 14.6666 4.66667 14.6666H19.3333C19.7 14.6666 20 14.3666 20 14C20 13.6333 19.7 13.3333 19.3333 13.3333H4.66667ZM4 16.6666C4 17.0333 4.3 17.3333 4.66667 17.3333H7.33333C7.7 17.3333 8 17.0333 8 16.6666C8 16.3 7.7 16 7.33333 16H4.66667C4.3 16 4 16.3 4 16.6666ZM9.33333 16.6666C9.33333 17.0333 9.63333 17.3333 10 17.3333H15.3333C15.7 17.3333 16 17.0333 16 16.6666C16 16.3 15.7 16 15.3333 16H10C9.63333 16 9.33333 16.3 9.33333 16.6666ZM17 5.33329C16.4458 5.33329 16 5.77913 16 6.33329V8.33329C16 8.88746 16.4458 9.33329 17 9.33329H20.3333C20.8875 9.33329 21.3333 8.88746 21.3333 8.33329V6.33329C21.3333 5.77913 20.8875 5.33329 20.3333 5.33329H17Z" fill="#20363D"/>
</svg>
