<svg width="24" height="24" viewBox="0 0 24 24" fill="none" xmlns="http://www.w3.org/2000/svg">
<g clip-path="url(#clip0_3529_12556)">
<path d="M12.6667 1.33331C12.1362 1.33331 11.6275 1.54403 11.2525 1.9191C10.8774 2.29417 10.6667 2.80288 10.6667 3.33331C10.6667 3.86375 10.8774 4.37245 11.2525 4.74753C11.6275 5.1226 12.1362 5.33331 12.6667 5.33331C13.1971 5.33331 13.7058 5.1226 14.0809 4.74753C14.456 4.37245 14.6667 3.86375 14.6667 3.33331C14.6667 2.80288 14.456 2.29417 14.0809 1.9191C13.7058 1.54403 13.1971 1.33331 12.6667 1.33331ZM17.2 7.99998C17.7875 7.99998 18.3458 8.23331 18.7625 8.64581L19.725 9.60831C20.2458 10.1291 21.0917 10.1291 21.6125 9.60831C22.1333 9.08748 22.1333 8.24165 21.6125 7.72081L20.65 6.75831C19.7333 5.84581 18.4917 5.33331 17.2 5.33331C16.7125 5.33331 16.2292 5.40415 15.7667 5.54998L13.7375 6.17498C12.2208 6.64165 10.9917 7.75831 10.3833 9.22081L10.1208 9.84581C9.9125 10.3416 9.42917 10.6666 8.89167 10.6666H8C7.2625 10.6666 6.66667 11.2625 6.66667 12C6.66667 12.7375 7.2625 13.3333 8 13.3333H8.8875C10.5042 13.3333 11.9583 12.3625 12.5792 10.8708L12.7917 10.3583L14.0833 13.7916L11.7208 15.2666C10.9667 15.7375 10.6125 16.6541 10.8583 17.5125L12.05 21.7C12.2542 22.4083 12.9917 22.8166 13.7 22.6166C14.4083 22.4166 14.8167 21.675 14.6167 20.9666L13.5583 17.2666L17.15 15.0208C18.1958 14.3666 18.6542 13.0833 18.2667 11.9166L16.9667 8.01248C17.0458 8.00415 17.1208 7.99998 17.2 7.99998ZM19.4375 14.2791C19.1292 15.0333 18.5875 15.6916 17.8583 16.15L17.4625 16.4L17.9417 17.4791C18.2625 18.2 18.9792 18.6666 19.7708 18.6666H22.6667C23.4042 18.6666 24 18.0708 24 17.3333C24 16.5958 23.4042 16 22.6667 16H20.2L19.4375 14.2791ZM8 3.33331C8 2.22915 7.10417 1.33331 6 1.33331H2C0.895833 1.33331 -7.15256e-07 2.22915 -7.15256e-07 3.33331V20.6666C-7.15256e-07 21.7708 0.895833 22.6666 2 22.6666H6C7.10417 22.6666 8 21.7708 8 20.6666V14.6666C6.52917 14.6666 5.33333 13.4708 5.33333 12C5.33333 10.5291 6.52917 9.33331 8 9.33331V3.33331Z" fill="#20363D"/>
</g>
<defs>
<clipPath id="clip0_3529_12556">
<rect width="24" height="21.3333" fill="white" transform="matrix(-1 0 0 1 24 1.33331)"/>
</clipPath>
</defs>
</svg>
