<svg width="24" height="24" viewBox="0 0 24 24" fill="none" xmlns="http://www.w3.org/2000/svg">
<g clip-path="url(#clip0_3529_12103)">
<g clip-path="url(#clip1_3529_12103)">
<path d="M2.33907 1.30313C0.70782 0.595317 -0.899992 2.34844 -0.0562423 3.91407L3.1922 9.94688C3.39845 10.3359 3.78282 10.5938 4.21876 10.65L12.4688 11.6813C12.6281 11.7 12.75 11.8359 12.75 11.9953C12.75 12.1547 12.6281 12.2906 12.4688 12.3094L4.21876 13.3406C3.78282 13.3969 3.39845 13.6594 3.1922 14.0438L-0.0562423 20.0859C-0.899992 21.6516 0.70782 23.4047 2.33907 22.6969L23.0531 13.7203C24.5578 13.0688 24.5578 10.9313 23.0531 10.2797L2.33907 1.30313Z" fill="#20363D"/>
</g>
</g>
<defs>
<clipPath id="clip0_3529_12103">
<rect width="24" height="24" fill="white"/>
</clipPath>
<clipPath id="clip1_3529_12103">
<rect width="24" height="24" fill="white"/>
</clipPath>
</defs>
</svg>
